<mxfile host="app.diagrams.net" agent="Mozilla/5.0 (Windows NT 10.0; Win64; x64) AppleWebKit/537.36 (KHTML, like Gecko) Chrome/128.0.0.0 YaBrowser/24.10.0.0 Safari/537.36" version="25.0.1">
  <diagram name="Страница — 1" id="kkJg65Vq2xQ7mNE0vx_K">
    <mxGraphModel dx="1707" dy="1557" grid="1" gridSize="10" guides="1" tooltips="1" connect="1" arrows="1" fold="1" page="1" pageScale="1" pageWidth="827" pageHeight="1169" math="0" shadow="0">
      <root>
        <mxCell id="0" />
        <mxCell id="1" parent="0" />
        <mxCell id="uxhHJGPJ8Xa8tnD7HbR_-3" style="edgeStyle=orthogonalEdgeStyle;rounded=0;orthogonalLoop=1;jettySize=auto;html=1;exitX=0.5;exitY=1;exitDx=0;exitDy=0;entryX=0.5;entryY=0;entryDx=0;entryDy=0;" edge="1" parent="1" source="uxhHJGPJ8Xa8tnD7HbR_-1" target="uxhHJGPJ8Xa8tnD7HbR_-2">
          <mxGeometry relative="1" as="geometry" />
        </mxCell>
        <mxCell id="uxhHJGPJ8Xa8tnD7HbR_-1" value="" style="ellipse;whiteSpace=wrap;html=1;aspect=fixed;" vertex="1" parent="1">
          <mxGeometry x="130" y="60" width="40" height="40" as="geometry" />
        </mxCell>
        <mxCell id="uxhHJGPJ8Xa8tnD7HbR_-5" style="edgeStyle=orthogonalEdgeStyle;rounded=0;orthogonalLoop=1;jettySize=auto;html=1;exitX=0.5;exitY=1;exitDx=0;exitDy=0;entryX=0.5;entryY=0;entryDx=0;entryDy=0;" edge="1" parent="1" source="uxhHJGPJ8Xa8tnD7HbR_-2" target="uxhHJGPJ8Xa8tnD7HbR_-4">
          <mxGeometry relative="1" as="geometry" />
        </mxCell>
        <mxCell id="uxhHJGPJ8Xa8tnD7HbR_-2" value="головной отдел создает заявление о приеме на работу" style="rounded=1;whiteSpace=wrap;html=1;" vertex="1" parent="1">
          <mxGeometry x="90" y="130" width="120" height="60" as="geometry" />
        </mxCell>
        <mxCell id="uxhHJGPJ8Xa8tnD7HbR_-7" style="edgeStyle=orthogonalEdgeStyle;rounded=0;orthogonalLoop=1;jettySize=auto;html=1;exitX=0.5;exitY=1;exitDx=0;exitDy=0;entryX=0.5;entryY=0;entryDx=0;entryDy=0;" edge="1" parent="1" source="uxhHJGPJ8Xa8tnD7HbR_-4" target="uxhHJGPJ8Xa8tnD7HbR_-6">
          <mxGeometry relative="1" as="geometry" />
        </mxCell>
        <mxCell id="uxhHJGPJ8Xa8tnD7HbR_-4" value="заявление проверяется отделом кадров" style="rounded=1;whiteSpace=wrap;html=1;" vertex="1" parent="1">
          <mxGeometry x="90" y="210" width="120" height="60" as="geometry" />
        </mxCell>
        <mxCell id="uxhHJGPJ8Xa8tnD7HbR_-9" style="edgeStyle=orthogonalEdgeStyle;rounded=0;orthogonalLoop=1;jettySize=auto;html=1;exitX=1;exitY=0.5;exitDx=0;exitDy=0;entryX=0.5;entryY=0;entryDx=0;entryDy=0;" edge="1" parent="1" source="uxhHJGPJ8Xa8tnD7HbR_-6" target="uxhHJGPJ8Xa8tnD7HbR_-8">
          <mxGeometry relative="1" as="geometry" />
        </mxCell>
        <mxCell id="uxhHJGPJ8Xa8tnD7HbR_-10" value="нет" style="edgeLabel;html=1;align=center;verticalAlign=middle;resizable=0;points=[];" vertex="1" connectable="0" parent="uxhHJGPJ8Xa8tnD7HbR_-9">
          <mxGeometry x="-0.5377" y="4" relative="1" as="geometry">
            <mxPoint as="offset" />
          </mxGeometry>
        </mxCell>
        <mxCell id="uxhHJGPJ8Xa8tnD7HbR_-12" style="edgeStyle=orthogonalEdgeStyle;rounded=0;orthogonalLoop=1;jettySize=auto;html=1;exitX=0;exitY=0.5;exitDx=0;exitDy=0;entryX=0.5;entryY=0;entryDx=0;entryDy=0;" edge="1" parent="1" source="uxhHJGPJ8Xa8tnD7HbR_-6" target="uxhHJGPJ8Xa8tnD7HbR_-11">
          <mxGeometry relative="1" as="geometry" />
        </mxCell>
        <mxCell id="uxhHJGPJ8Xa8tnD7HbR_-13" value="да" style="edgeLabel;html=1;align=center;verticalAlign=middle;resizable=0;points=[];" vertex="1" connectable="0" parent="uxhHJGPJ8Xa8tnD7HbR_-12">
          <mxGeometry x="-0.4551" y="-2" relative="1" as="geometry">
            <mxPoint as="offset" />
          </mxGeometry>
        </mxCell>
        <mxCell id="uxhHJGPJ8Xa8tnD7HbR_-6" value="соответствует ли заявление требованиям?" style="rhombus;whiteSpace=wrap;html=1;" vertex="1" parent="1">
          <mxGeometry x="45" y="300" width="210" height="80" as="geometry" />
        </mxCell>
        <mxCell id="uxhHJGPJ8Xa8tnD7HbR_-8" value="менеджер получает уведомление о необходимости пересмотра" style="rounded=1;whiteSpace=wrap;html=1;" vertex="1" parent="1">
          <mxGeometry x="312" y="360" width="120" height="60" as="geometry" />
        </mxCell>
        <mxCell id="uxhHJGPJ8Xa8tnD7HbR_-16" style="edgeStyle=orthogonalEdgeStyle;rounded=0;orthogonalLoop=1;jettySize=auto;html=1;exitX=0.5;exitY=1;exitDx=0;exitDy=0;entryX=0.5;entryY=0;entryDx=0;entryDy=0;" edge="1" parent="1" source="uxhHJGPJ8Xa8tnD7HbR_-11" target="uxhHJGPJ8Xa8tnD7HbR_-14">
          <mxGeometry relative="1" as="geometry" />
        </mxCell>
        <mxCell id="uxhHJGPJ8Xa8tnD7HbR_-11" value="заявка одобрена" style="rounded=1;whiteSpace=wrap;html=1;" vertex="1" parent="1">
          <mxGeometry x="-110" y="360" width="120" height="60" as="geometry" />
        </mxCell>
        <mxCell id="uxhHJGPJ8Xa8tnD7HbR_-17" style="edgeStyle=orthogonalEdgeStyle;rounded=0;orthogonalLoop=1;jettySize=auto;html=1;exitX=0.5;exitY=1;exitDx=0;exitDy=0;" edge="1" parent="1" source="uxhHJGPJ8Xa8tnD7HbR_-14" target="uxhHJGPJ8Xa8tnD7HbR_-15">
          <mxGeometry relative="1" as="geometry" />
        </mxCell>
        <mxCell id="uxhHJGPJ8Xa8tnD7HbR_-14" value="вакансия опубликована на сайте компании" style="rounded=1;whiteSpace=wrap;html=1;" vertex="1" parent="1">
          <mxGeometry x="-110" y="450" width="120" height="60" as="geometry" />
        </mxCell>
        <mxCell id="uxhHJGPJ8Xa8tnD7HbR_-19" style="edgeStyle=orthogonalEdgeStyle;rounded=0;orthogonalLoop=1;jettySize=auto;html=1;exitX=0.5;exitY=1;exitDx=0;exitDy=0;entryX=0.5;entryY=0;entryDx=0;entryDy=0;" edge="1" parent="1" source="uxhHJGPJ8Xa8tnD7HbR_-15" target="uxhHJGPJ8Xa8tnD7HbR_-18">
          <mxGeometry relative="1" as="geometry" />
        </mxCell>
        <mxCell id="uxhHJGPJ8Xa8tnD7HbR_-15" value="кандидаты подают заявки" style="rounded=1;whiteSpace=wrap;html=1;" vertex="1" parent="1">
          <mxGeometry x="-110" y="540" width="120" height="60" as="geometry" />
        </mxCell>
        <mxCell id="uxhHJGPJ8Xa8tnD7HbR_-18" value="отдел кадров проверяет профили кандидатов" style="rounded=1;whiteSpace=wrap;html=1;" vertex="1" parent="1">
          <mxGeometry x="-110" y="630" width="120" height="60" as="geometry" />
        </mxCell>
        <mxCell id="uxhHJGPJ8Xa8tnD7HbR_-22" style="edgeStyle=orthogonalEdgeStyle;rounded=0;orthogonalLoop=1;jettySize=auto;html=1;exitX=0;exitY=0.5;exitDx=0;exitDy=0;entryX=0.5;entryY=0;entryDx=0;entryDy=0;" edge="1" parent="1" source="uxhHJGPJ8Xa8tnD7HbR_-20" target="uxhHJGPJ8Xa8tnD7HbR_-21">
          <mxGeometry relative="1" as="geometry" />
        </mxCell>
        <mxCell id="uxhHJGPJ8Xa8tnD7HbR_-37" value="нет" style="edgeLabel;html=1;align=center;verticalAlign=middle;resizable=0;points=[];" vertex="1" connectable="0" parent="uxhHJGPJ8Xa8tnD7HbR_-22">
          <mxGeometry x="-0.36" y="-1" relative="1" as="geometry">
            <mxPoint as="offset" />
          </mxGeometry>
        </mxCell>
        <mxCell id="uxhHJGPJ8Xa8tnD7HbR_-24" style="edgeStyle=orthogonalEdgeStyle;rounded=0;orthogonalLoop=1;jettySize=auto;html=1;exitX=1;exitY=0.5;exitDx=0;exitDy=0;entryX=0;entryY=0.5;entryDx=0;entryDy=0;" edge="1" parent="1" source="uxhHJGPJ8Xa8tnD7HbR_-20" target="uxhHJGPJ8Xa8tnD7HbR_-23">
          <mxGeometry relative="1" as="geometry" />
        </mxCell>
        <mxCell id="uxhHJGPJ8Xa8tnD7HbR_-35" value="да" style="edgeLabel;html=1;align=center;verticalAlign=middle;resizable=0;points=[];" vertex="1" connectable="0" parent="uxhHJGPJ8Xa8tnD7HbR_-24">
          <mxGeometry x="-0.2422" y="3" relative="1" as="geometry">
            <mxPoint as="offset" />
          </mxGeometry>
        </mxCell>
        <mxCell id="uxhHJGPJ8Xa8tnD7HbR_-20" value="соответствует ли кандидат требованиям?" style="rhombus;whiteSpace=wrap;html=1;" vertex="1" parent="1">
          <mxGeometry x="-160" y="710" width="220" height="80" as="geometry" />
        </mxCell>
        <mxCell id="uxhHJGPJ8Xa8tnD7HbR_-21" value="кандидату отказано" style="rounded=1;whiteSpace=wrap;html=1;" vertex="1" parent="1">
          <mxGeometry x="-290" y="780" width="120" height="60" as="geometry" />
        </mxCell>
        <mxCell id="uxhHJGPJ8Xa8tnD7HbR_-30" style="edgeStyle=orthogonalEdgeStyle;rounded=0;orthogonalLoop=1;jettySize=auto;html=1;exitX=0.5;exitY=1;exitDx=0;exitDy=0;entryX=0.5;entryY=0;entryDx=0;entryDy=0;" edge="1" parent="1" source="uxhHJGPJ8Xa8tnD7HbR_-23" target="uxhHJGPJ8Xa8tnD7HbR_-25">
          <mxGeometry relative="1" as="geometry" />
        </mxCell>
        <mxCell id="uxhHJGPJ8Xa8tnD7HbR_-23" value="кандидата приглашают на собеседование" style="rounded=1;whiteSpace=wrap;html=1;" vertex="1" parent="1">
          <mxGeometry x="135" y="720" width="120" height="60" as="geometry" />
        </mxCell>
        <mxCell id="uxhHJGPJ8Xa8tnD7HbR_-31" style="edgeStyle=orthogonalEdgeStyle;rounded=0;orthogonalLoop=1;jettySize=auto;html=1;exitX=0.25;exitY=1;exitDx=0;exitDy=0;entryX=0.5;entryY=0;entryDx=0;entryDy=0;" edge="1" parent="1" source="uxhHJGPJ8Xa8tnD7HbR_-25" target="uxhHJGPJ8Xa8tnD7HbR_-26">
          <mxGeometry relative="1" as="geometry" />
        </mxCell>
        <mxCell id="uxhHJGPJ8Xa8tnD7HbR_-32" style="edgeStyle=orthogonalEdgeStyle;rounded=0;orthogonalLoop=1;jettySize=auto;html=1;exitX=0.75;exitY=1;exitDx=0;exitDy=0;entryX=0.5;entryY=0;entryDx=0;entryDy=0;" edge="1" parent="1" source="uxhHJGPJ8Xa8tnD7HbR_-25" target="uxhHJGPJ8Xa8tnD7HbR_-27">
          <mxGeometry relative="1" as="geometry" />
        </mxCell>
        <mxCell id="uxhHJGPJ8Xa8tnD7HbR_-25" value="" style="rounded=0;whiteSpace=wrap;html=1;" vertex="1" parent="1">
          <mxGeometry x="135" y="805" width="120" height="10" as="geometry" />
        </mxCell>
        <mxCell id="uxhHJGPJ8Xa8tnD7HbR_-33" style="edgeStyle=orthogonalEdgeStyle;rounded=0;orthogonalLoop=1;jettySize=auto;html=1;exitX=0.5;exitY=1;exitDx=0;exitDy=0;entryX=0.5;entryY=0;entryDx=0;entryDy=0;" edge="1" parent="1" source="uxhHJGPJ8Xa8tnD7HbR_-26" target="uxhHJGPJ8Xa8tnD7HbR_-28">
          <mxGeometry relative="1" as="geometry" />
        </mxCell>
        <mxCell id="uxhHJGPJ8Xa8tnD7HbR_-26" value="менеджер проводит первичное собеседование" style="rounded=1;whiteSpace=wrap;html=1;" vertex="1" parent="1">
          <mxGeometry x="20" y="850" width="120" height="60" as="geometry" />
        </mxCell>
        <mxCell id="uxhHJGPJ8Xa8tnD7HbR_-34" style="edgeStyle=orthogonalEdgeStyle;rounded=0;orthogonalLoop=1;jettySize=auto;html=1;exitX=0.5;exitY=1;exitDx=0;exitDy=0;entryX=0.5;entryY=0;entryDx=0;entryDy=0;" edge="1" parent="1" source="uxhHJGPJ8Xa8tnD7HbR_-27" target="uxhHJGPJ8Xa8tnD7HbR_-29">
          <mxGeometry relative="1" as="geometry" />
        </mxCell>
        <mxCell id="uxhHJGPJ8Xa8tnD7HbR_-27" value="головной отдел проводит тех собеседование" style="rounded=1;whiteSpace=wrap;html=1;" vertex="1" parent="1">
          <mxGeometry x="250" y="850" width="120" height="60" as="geometry" />
        </mxCell>
        <mxCell id="uxhHJGPJ8Xa8tnD7HbR_-47" style="edgeStyle=orthogonalEdgeStyle;rounded=0;orthogonalLoop=1;jettySize=auto;html=1;exitX=0.5;exitY=1;exitDx=0;exitDy=0;entryX=0.25;entryY=0;entryDx=0;entryDy=0;" edge="1" parent="1" source="uxhHJGPJ8Xa8tnD7HbR_-28" target="uxhHJGPJ8Xa8tnD7HbR_-46">
          <mxGeometry relative="1" as="geometry">
            <Array as="points">
              <mxPoint x="80" y="1200" />
              <mxPoint x="165" y="1200" />
            </Array>
          </mxGeometry>
        </mxCell>
        <mxCell id="uxhHJGPJ8Xa8tnD7HbR_-50" value="да" style="edgeLabel;html=1;align=center;verticalAlign=middle;resizable=0;points=[];" vertex="1" connectable="0" parent="uxhHJGPJ8Xa8tnD7HbR_-47">
          <mxGeometry x="-0.5122" y="-1" relative="1" as="geometry">
            <mxPoint y="1" as="offset" />
          </mxGeometry>
        </mxCell>
        <mxCell id="uxhHJGPJ8Xa8tnD7HbR_-28" value="кандидат проходит собеседование?" style="rhombus;whiteSpace=wrap;html=1;" vertex="1" parent="1">
          <mxGeometry x="-5" y="940" width="170" height="80" as="geometry" />
        </mxCell>
        <mxCell id="uxhHJGPJ8Xa8tnD7HbR_-48" style="edgeStyle=orthogonalEdgeStyle;rounded=0;orthogonalLoop=1;jettySize=auto;html=1;exitX=0.5;exitY=1;exitDx=0;exitDy=0;entryX=0.75;entryY=0;entryDx=0;entryDy=0;" edge="1" parent="1" source="uxhHJGPJ8Xa8tnD7HbR_-29" target="uxhHJGPJ8Xa8tnD7HbR_-46">
          <mxGeometry relative="1" as="geometry">
            <Array as="points">
              <mxPoint x="310" y="1200" />
              <mxPoint x="225" y="1200" />
            </Array>
          </mxGeometry>
        </mxCell>
        <mxCell id="uxhHJGPJ8Xa8tnD7HbR_-49" value="да" style="edgeLabel;html=1;align=center;verticalAlign=middle;resizable=0;points=[];" vertex="1" connectable="0" parent="uxhHJGPJ8Xa8tnD7HbR_-48">
          <mxGeometry x="-0.4407" relative="1" as="geometry">
            <mxPoint y="1" as="offset" />
          </mxGeometry>
        </mxCell>
        <mxCell id="uxhHJGPJ8Xa8tnD7HbR_-29" value="кандидат проходит собеседование?" style="rhombus;whiteSpace=wrap;html=1;" vertex="1" parent="1">
          <mxGeometry x="225" y="940" width="170" height="80" as="geometry" />
        </mxCell>
        <mxCell id="uxhHJGPJ8Xa8tnD7HbR_-45" style="edgeStyle=orthogonalEdgeStyle;rounded=0;orthogonalLoop=1;jettySize=auto;html=1;exitX=0.5;exitY=1;exitDx=0;exitDy=0;" edge="1" parent="1" source="uxhHJGPJ8Xa8tnD7HbR_-38" target="uxhHJGPJ8Xa8tnD7HbR_-44">
          <mxGeometry relative="1" as="geometry" />
        </mxCell>
        <mxCell id="uxhHJGPJ8Xa8tnD7HbR_-38" value="" style="rounded=0;whiteSpace=wrap;html=1;" vertex="1" parent="1">
          <mxGeometry x="135" y="1050" width="120" height="10" as="geometry" />
        </mxCell>
        <mxCell id="uxhHJGPJ8Xa8tnD7HbR_-39" style="edgeStyle=orthogonalEdgeStyle;rounded=0;orthogonalLoop=1;jettySize=auto;html=1;exitX=1;exitY=0.5;exitDx=0;exitDy=0;entryX=0.351;entryY=-0.317;entryDx=0;entryDy=0;entryPerimeter=0;" edge="1" parent="1" source="uxhHJGPJ8Xa8tnD7HbR_-28" target="uxhHJGPJ8Xa8tnD7HbR_-38">
          <mxGeometry relative="1" as="geometry">
            <Array as="points">
              <mxPoint x="177" y="980" />
            </Array>
          </mxGeometry>
        </mxCell>
        <mxCell id="uxhHJGPJ8Xa8tnD7HbR_-43" value="нет" style="edgeLabel;html=1;align=center;verticalAlign=middle;resizable=0;points=[];" vertex="1" connectable="0" parent="uxhHJGPJ8Xa8tnD7HbR_-39">
          <mxGeometry x="0.0502" y="2" relative="1" as="geometry">
            <mxPoint as="offset" />
          </mxGeometry>
        </mxCell>
        <mxCell id="uxhHJGPJ8Xa8tnD7HbR_-41" style="edgeStyle=orthogonalEdgeStyle;rounded=0;orthogonalLoop=1;jettySize=auto;html=1;exitX=0;exitY=0.5;exitDx=0;exitDy=0;entryX=0.664;entryY=-0.15;entryDx=0;entryDy=0;entryPerimeter=0;" edge="1" parent="1" source="uxhHJGPJ8Xa8tnD7HbR_-29" target="uxhHJGPJ8Xa8tnD7HbR_-38">
          <mxGeometry relative="1" as="geometry">
            <Array as="points">
              <mxPoint x="215" y="980" />
            </Array>
          </mxGeometry>
        </mxCell>
        <mxCell id="uxhHJGPJ8Xa8tnD7HbR_-42" value="нет" style="edgeLabel;html=1;align=center;verticalAlign=middle;resizable=0;points=[];" vertex="1" connectable="0" parent="uxhHJGPJ8Xa8tnD7HbR_-41">
          <mxGeometry x="0.0688" relative="1" as="geometry">
            <mxPoint as="offset" />
          </mxGeometry>
        </mxCell>
        <mxCell id="uxhHJGPJ8Xa8tnD7HbR_-44" value="кандидату отказано" style="rounded=1;whiteSpace=wrap;html=1;" vertex="1" parent="1">
          <mxGeometry x="135" y="1109" width="120" height="60" as="geometry" />
        </mxCell>
        <mxCell id="uxhHJGPJ8Xa8tnD7HbR_-52" style="edgeStyle=orthogonalEdgeStyle;rounded=0;orthogonalLoop=1;jettySize=auto;html=1;exitX=0.5;exitY=1;exitDx=0;exitDy=0;entryX=0.5;entryY=0;entryDx=0;entryDy=0;" edge="1" parent="1" source="uxhHJGPJ8Xa8tnD7HbR_-46" target="uxhHJGPJ8Xa8tnD7HbR_-51">
          <mxGeometry relative="1" as="geometry" />
        </mxCell>
        <mxCell id="uxhHJGPJ8Xa8tnD7HbR_-46" value="" style="rounded=0;whiteSpace=wrap;html=1;" vertex="1" parent="1">
          <mxGeometry x="135" y="1250" width="120" height="10" as="geometry" />
        </mxCell>
        <mxCell id="uxhHJGPJ8Xa8tnD7HbR_-54" style="edgeStyle=orthogonalEdgeStyle;rounded=0;orthogonalLoop=1;jettySize=auto;html=1;exitX=0.5;exitY=1;exitDx=0;exitDy=0;entryX=0.5;entryY=0;entryDx=0;entryDy=0;" edge="1" parent="1" source="uxhHJGPJ8Xa8tnD7HbR_-51" target="uxhHJGPJ8Xa8tnD7HbR_-53">
          <mxGeometry relative="1" as="geometry" />
        </mxCell>
        <mxCell id="uxhHJGPJ8Xa8tnD7HbR_-51" value="кандидату предлагается предложение" style="rounded=1;whiteSpace=wrap;html=1;" vertex="1" parent="1">
          <mxGeometry x="135" y="1310" width="120" height="60" as="geometry" />
        </mxCell>
        <mxCell id="uxhHJGPJ8Xa8tnD7HbR_-56" style="edgeStyle=orthogonalEdgeStyle;rounded=0;orthogonalLoop=1;jettySize=auto;html=1;exitX=0.5;exitY=1;exitDx=0;exitDy=0;entryX=0.5;entryY=0;entryDx=0;entryDy=0;" edge="1" parent="1" source="uxhHJGPJ8Xa8tnD7HbR_-53" target="uxhHJGPJ8Xa8tnD7HbR_-55">
          <mxGeometry relative="1" as="geometry" />
        </mxCell>
        <mxCell id="uxhHJGPJ8Xa8tnD7HbR_-53" value="кандидат подтверждает предложение&amp;nbsp;" style="rounded=1;whiteSpace=wrap;html=1;" vertex="1" parent="1">
          <mxGeometry x="135" y="1400" width="120" height="60" as="geometry" />
        </mxCell>
        <mxCell id="uxhHJGPJ8Xa8tnD7HbR_-59" style="edgeStyle=orthogonalEdgeStyle;rounded=0;orthogonalLoop=1;jettySize=auto;html=1;exitX=0.25;exitY=1;exitDx=0;exitDy=0;entryX=0.5;entryY=0;entryDx=0;entryDy=0;" edge="1" parent="1" source="uxhHJGPJ8Xa8tnD7HbR_-55" target="uxhHJGPJ8Xa8tnD7HbR_-57">
          <mxGeometry relative="1" as="geometry" />
        </mxCell>
        <mxCell id="uxhHJGPJ8Xa8tnD7HbR_-60" style="edgeStyle=orthogonalEdgeStyle;rounded=0;orthogonalLoop=1;jettySize=auto;html=1;exitX=0.75;exitY=1;exitDx=0;exitDy=0;entryX=0.5;entryY=0;entryDx=0;entryDy=0;" edge="1" parent="1" source="uxhHJGPJ8Xa8tnD7HbR_-55" target="uxhHJGPJ8Xa8tnD7HbR_-58">
          <mxGeometry relative="1" as="geometry" />
        </mxCell>
        <mxCell id="uxhHJGPJ8Xa8tnD7HbR_-55" value="" style="rounded=0;whiteSpace=wrap;html=1;" vertex="1" parent="1">
          <mxGeometry x="135" y="1490" width="120" height="10" as="geometry" />
        </mxCell>
        <mxCell id="uxhHJGPJ8Xa8tnD7HbR_-57" value="система добавляет нового клиента в базу данных компании" style="rounded=1;whiteSpace=wrap;html=1;" vertex="1" parent="1">
          <mxGeometry x="20" y="1530" width="120" height="60" as="geometry" />
        </mxCell>
        <mxCell id="uxhHJGPJ8Xa8tnD7HbR_-63" style="edgeStyle=orthogonalEdgeStyle;rounded=0;orthogonalLoop=1;jettySize=auto;html=1;exitX=0.25;exitY=1;exitDx=0;exitDy=0;entryX=0.75;entryY=0;entryDx=0;entryDy=0;" edge="1" parent="1" source="uxhHJGPJ8Xa8tnD7HbR_-58" target="uxhHJGPJ8Xa8tnD7HbR_-61">
          <mxGeometry relative="1" as="geometry" />
        </mxCell>
        <mxCell id="uxhHJGPJ8Xa8tnD7HbR_-58" value="система добавляет нового сотрудника в базу данных компании" style="rounded=1;whiteSpace=wrap;html=1;" vertex="1" parent="1">
          <mxGeometry x="290" y="1530" width="120" height="60" as="geometry" />
        </mxCell>
        <mxCell id="uxhHJGPJ8Xa8tnD7HbR_-65" style="edgeStyle=orthogonalEdgeStyle;rounded=0;orthogonalLoop=1;jettySize=auto;html=1;exitX=0.5;exitY=1;exitDx=0;exitDy=0;entryX=0.5;entryY=0;entryDx=0;entryDy=0;" edge="1" parent="1" source="uxhHJGPJ8Xa8tnD7HbR_-61" target="uxhHJGPJ8Xa8tnD7HbR_-64">
          <mxGeometry relative="1" as="geometry" />
        </mxCell>
        <mxCell id="uxhHJGPJ8Xa8tnD7HbR_-61" value="" style="rounded=0;whiteSpace=wrap;html=1;" vertex="1" parent="1">
          <mxGeometry x="135" y="1620" width="120" height="10" as="geometry" />
        </mxCell>
        <mxCell id="uxhHJGPJ8Xa8tnD7HbR_-62" style="edgeStyle=orthogonalEdgeStyle;rounded=0;orthogonalLoop=1;jettySize=auto;html=1;exitX=0.5;exitY=1;exitDx=0;exitDy=0;entryX=0.365;entryY=-0.15;entryDx=0;entryDy=0;entryPerimeter=0;" edge="1" parent="1" source="uxhHJGPJ8Xa8tnD7HbR_-57" target="uxhHJGPJ8Xa8tnD7HbR_-61">
          <mxGeometry relative="1" as="geometry" />
        </mxCell>
        <mxCell id="uxhHJGPJ8Xa8tnD7HbR_-64" value="" style="ellipse;whiteSpace=wrap;html=1;aspect=fixed;" vertex="1" parent="1">
          <mxGeometry x="160" y="1670" width="50" height="50" as="geometry" />
        </mxCell>
      </root>
    </mxGraphModel>
  </diagram>
</mxfile>
